<mxfile host="65bd71144e">
    <diagram id="nFVXDD8f7ysOjbekicom" name="sign-in">
        <mxGraphModel dx="995" dy="684" grid="1" gridSize="10" guides="1" tooltips="1" connect="1" arrows="1" fold="1" page="1" pageScale="1" pageWidth="850" pageHeight="1100" math="0" shadow="0">
            <root>
                <mxCell id="0"/>
                <mxCell id="1" parent="0"/>
                <mxCell id="15" style="edgeStyle=none;html=1;entryX=0.5;entryY=0;entryDx=0;entryDy=0;fontSize=16;exitX=0.5;exitY=1;exitDx=0;exitDy=0;exitPerimeter=0;" edge="1" parent="1" source="26" target="17">
                    <mxGeometry relative="1" as="geometry">
                        <mxPoint x="425.1666666666665" y="150" as="sourcePoint"/>
                        <mxPoint x="425" y="230" as="targetPoint"/>
                    </mxGeometry>
                </mxCell>
                <mxCell id="20" style="edgeStyle=none;html=1;exitX=0.5;exitY=1;exitDx=0;exitDy=0;fontSize=16;" edge="1" parent="1" source="17" target="19">
                    <mxGeometry relative="1" as="geometry"/>
                </mxCell>
                <mxCell id="17" value="username / password" style="rounded=1;whiteSpace=wrap;html=1;absoluteArcSize=1;arcSize=14;strokeWidth=2;fontSize=16;" vertex="1" parent="1">
                    <mxGeometry x="317" y="200" width="217" height="70" as="geometry"/>
                </mxCell>
                <mxCell id="21" style="edgeStyle=none;html=1;entryX=1;entryY=0.5;entryDx=0;entryDy=0;fontSize=16;" edge="1" parent="1" source="19" target="17">
                    <mxGeometry relative="1" as="geometry">
                        <Array as="points">
                            <mxPoint x="610" y="355"/>
                            <mxPoint x="610" y="235"/>
                        </Array>
                    </mxGeometry>
                </mxCell>
                <mxCell id="22" value="no" style="edgeLabel;html=1;align=center;verticalAlign=middle;resizable=0;points=[];fontSize=16;" vertex="1" connectable="0" parent="21">
                    <mxGeometry x="-0.7032" relative="1" as="geometry">
                        <mxPoint as="offset"/>
                    </mxGeometry>
                </mxCell>
                <mxCell id="24" style="edgeStyle=none;html=1;exitX=0.5;exitY=1;exitDx=0;exitDy=0;exitPerimeter=0;entryX=0.5;entryY=0;entryDx=0;entryDy=0;fontSize=16;entryPerimeter=0;" edge="1" parent="1" source="19" target="27">
                    <mxGeometry relative="1" as="geometry">
                        <mxPoint x="425.4999999999998" y="460" as="targetPoint"/>
                    </mxGeometry>
                </mxCell>
                <mxCell id="25" value="yes" style="edgeLabel;html=1;align=center;verticalAlign=middle;resizable=0;points=[];fontSize=16;" vertex="1" connectable="0" parent="24">
                    <mxGeometry x="-0.25" y="2" relative="1" as="geometry">
                        <mxPoint as="offset"/>
                    </mxGeometry>
                </mxCell>
                <mxCell id="19" value="check" style="strokeWidth=2;html=1;shape=mxgraph.flowchart.decision;whiteSpace=wrap;fontSize=16;" vertex="1" parent="1">
                    <mxGeometry x="329" y="330" width="193" height="50" as="geometry"/>
                </mxCell>
                <mxCell id="26" value="start" style="strokeWidth=2;html=1;shape=mxgraph.flowchart.start_1;whiteSpace=wrap;fontSize=16;" vertex="1" parent="1">
                    <mxGeometry x="375" y="70" width="100" height="60" as="geometry"/>
                </mxCell>
                <mxCell id="27" value="profile" style="strokeWidth=2;html=1;shape=mxgraph.flowchart.display;whiteSpace=wrap;fontSize=16;" vertex="1" parent="1">
                    <mxGeometry x="375" y="500" width="100" height="60" as="geometry"/>
                </mxCell>
                <mxCell id="-BEuLweb4kVOtIi-PolC-30" style="edgeStyle=none;html=1;exitX=1;exitY=0.5;exitDx=0;exitDy=0;exitPerimeter=0;" edge="1" parent="1" source="8GbuwT8NLzRFzqH7OEWJ-27">
                    <mxGeometry relative="1" as="geometry">
                        <mxPoint x="330" y="355.1428571428571" as="targetPoint"/>
                    </mxGeometry>
                </mxCell>
                <mxCell id="8GbuwT8NLzRFzqH7OEWJ-27" value="&lt;font style=&quot;font-size: 16px;&quot;&gt;DB_user&lt;/font&gt;" style="strokeWidth=2;html=1;shape=mxgraph.flowchart.database;whiteSpace=wrap;" vertex="1" parent="1">
                    <mxGeometry x="70" y="305" width="100" height="100" as="geometry"/>
                </mxCell>
                <mxCell id="-BEuLweb4kVOtIi-PolC-27" style="edgeStyle=none;html=1;entryX=1;entryY=0.5;entryDx=0;entryDy=0;entryPerimeter=0;" edge="1" parent="1" source="19" target="8GbuwT8NLzRFzqH7OEWJ-27">
                    <mxGeometry relative="1" as="geometry"/>
                </mxCell>
                <mxCell id="Zle0xTsBEe76zDCSdlXW-27" value="end" style="strokeWidth=2;html=1;shape=mxgraph.flowchart.start_1;whiteSpace=wrap;fontSize=16;" vertex="1" parent="1">
                    <mxGeometry x="375" y="620" width="100" height="60" as="geometry"/>
                </mxCell>
                <mxCell id="Zle0xTsBEe76zDCSdlXW-28" style="edgeStyle=none;html=1;exitX=0.5;exitY=1;exitDx=0;exitDy=0;exitPerimeter=0;entryX=0.5;entryY=0;entryDx=0;entryDy=0;entryPerimeter=0;" edge="1" parent="1" source="27" target="Zle0xTsBEe76zDCSdlXW-27">
                    <mxGeometry relative="1" as="geometry"/>
                </mxCell>
            </root>
        </mxGraphModel>
    </diagram>
    <diagram id="t6Vr7Dzw5ycUIPHP6VGS" name="update-profile">
        <mxGraphModel dx="1271" dy="874" grid="1" gridSize="10" guides="1" tooltips="1" connect="1" arrows="1" fold="1" page="1" pageScale="1" pageWidth="850" pageHeight="1100" math="0" shadow="0">
            <root>
                <mxCell id="0"/>
                <mxCell id="1" parent="0"/>
                <mxCell id="fIsjUURkZK2D1dXDllZG-2" style="edgeStyle=none;html=1;exitX=0.5;exitY=1;exitDx=0;exitDy=0;fontSize=16;" edge="1" parent="1" source="fIsjUURkZK2D1dXDllZG-3" target="fIsjUURkZK2D1dXDllZG-8">
                    <mxGeometry relative="1" as="geometry"/>
                </mxCell>
                <mxCell id="fIsjUURkZK2D1dXDllZG-3" value="update personal data" style="rounded=1;whiteSpace=wrap;html=1;absoluteArcSize=1;arcSize=14;strokeWidth=2;fontSize=16;" vertex="1" parent="1">
                    <mxGeometry x="317" y="420" width="217" height="70" as="geometry"/>
                </mxCell>
                <mxCell id="fIsjUURkZK2D1dXDllZG-4" style="edgeStyle=none;html=1;entryX=1;entryY=0.5;entryDx=0;entryDy=0;fontSize=16;" edge="1" parent="1" source="fIsjUURkZK2D1dXDllZG-8" target="fIsjUURkZK2D1dXDllZG-3">
                    <mxGeometry relative="1" as="geometry">
                        <Array as="points">
                            <mxPoint x="610" y="575"/>
                            <mxPoint x="610" y="455"/>
                        </Array>
                    </mxGeometry>
                </mxCell>
                <mxCell id="fIsjUURkZK2D1dXDllZG-5" value="no" style="edgeLabel;html=1;align=center;verticalAlign=middle;resizable=0;points=[];fontSize=16;" vertex="1" connectable="0" parent="fIsjUURkZK2D1dXDllZG-4">
                    <mxGeometry x="-0.7032" relative="1" as="geometry">
                        <mxPoint as="offset"/>
                    </mxGeometry>
                </mxCell>
                <mxCell id="fIsjUURkZK2D1dXDllZG-6" style="edgeStyle=none;html=1;exitX=0.5;exitY=1;exitDx=0;exitDy=0;exitPerimeter=0;entryX=0.5;entryY=0;entryDx=0;entryDy=0;fontSize=16;entryPerimeter=0;" edge="1" parent="1" source="fIsjUURkZK2D1dXDllZG-8" target="fIsjUURkZK2D1dXDllZG-10">
                    <mxGeometry relative="1" as="geometry">
                        <mxPoint x="425.4999999999998" y="680" as="targetPoint"/>
                    </mxGeometry>
                </mxCell>
                <mxCell id="fIsjUURkZK2D1dXDllZG-7" value="yes" style="edgeLabel;html=1;align=center;verticalAlign=middle;resizable=0;points=[];fontSize=16;" vertex="1" connectable="0" parent="fIsjUURkZK2D1dXDllZG-6">
                    <mxGeometry x="-0.25" y="2" relative="1" as="geometry">
                        <mxPoint as="offset"/>
                    </mxGeometry>
                </mxCell>
                <mxCell id="2FbuZxxxC8XjEXGTwHmQ-1" style="edgeStyle=none;html=1;exitX=0;exitY=0.5;exitDx=0;exitDy=0;exitPerimeter=0;fontSize=16;" edge="1" parent="1" source="fIsjUURkZK2D1dXDllZG-8">
                    <mxGeometry relative="1" as="geometry">
                        <mxPoint x="170" y="574.8333333333335" as="targetPoint"/>
                    </mxGeometry>
                </mxCell>
                <mxCell id="fIsjUURkZK2D1dXDllZG-8" value="check" style="strokeWidth=2;html=1;shape=mxgraph.flowchart.decision;whiteSpace=wrap;fontSize=16;" vertex="1" parent="1">
                    <mxGeometry x="329" y="550" width="193" height="50" as="geometry"/>
                </mxCell>
                <mxCell id="APbuQcXfR1fwjJ1ndkPU-6" style="edgeStyle=none;html=1;exitX=0.5;exitY=1;exitDx=0;exitDy=0;exitPerimeter=0;entryX=0.5;entryY=0;entryDx=0;entryDy=0;fontSize=16;" edge="1" parent="1" source="fIsjUURkZK2D1dXDllZG-9" target="APbuQcXfR1fwjJ1ndkPU-5">
                    <mxGeometry relative="1" as="geometry"/>
                </mxCell>
                <mxCell id="fIsjUURkZK2D1dXDllZG-9" value="start" style="strokeWidth=2;html=1;shape=mxgraph.flowchart.start_1;whiteSpace=wrap;fontSize=16;" vertex="1" parent="1">
                    <mxGeometry x="375" y="40" width="100" height="60" as="geometry"/>
                </mxCell>
                <mxCell id="fIsjUURkZK2D1dXDllZG-10" value="profile" style="strokeWidth=2;html=1;shape=mxgraph.flowchart.display;whiteSpace=wrap;fontSize=16;" vertex="1" parent="1">
                    <mxGeometry x="375" y="720" width="100" height="60" as="geometry"/>
                </mxCell>
                <mxCell id="APbuQcXfR1fwjJ1ndkPU-12" style="edgeStyle=none;html=1;entryX=0;entryY=0.5;entryDx=0;entryDy=0;fontSize=16;" edge="1" parent="1" source="APbuQcXfR1fwjJ1ndkPU-1" target="fIsjUURkZK2D1dXDllZG-3">
                    <mxGeometry relative="1" as="geometry">
                        <Array as="points">
                            <mxPoint x="140" y="455"/>
                        </Array>
                    </mxGeometry>
                </mxCell>
                <mxCell id="APbuQcXfR1fwjJ1ndkPU-1" value="DB_user" style="strokeWidth=2;html=1;shape=mxgraph.flowchart.database;whiteSpace=wrap;fontSize=16;" vertex="1" parent="1">
                    <mxGeometry x="110" y="545" width="60" height="60" as="geometry"/>
                </mxCell>
                <mxCell id="APbuQcXfR1fwjJ1ndkPU-2" style="edgeStyle=none;html=1;entryX=0;entryY=0.5;entryDx=0;entryDy=0;entryPerimeter=0;fontSize=16;" edge="1" parent="1" source="APbuQcXfR1fwjJ1ndkPU-1" target="fIsjUURkZK2D1dXDllZG-8">
                    <mxGeometry relative="1" as="geometry"/>
                </mxCell>
                <mxCell id="APbuQcXfR1fwjJ1ndkPU-8" style="edgeStyle=none;html=1;exitX=1;exitY=0.5;exitDx=0;exitDy=0;exitPerimeter=0;entryX=1;entryY=0.5;entryDx=0;entryDy=0;fontSize=16;" edge="1" parent="1" source="APbuQcXfR1fwjJ1ndkPU-3" target="APbuQcXfR1fwjJ1ndkPU-5">
                    <mxGeometry relative="1" as="geometry">
                        <Array as="points">
                            <mxPoint x="600" y="295"/>
                            <mxPoint x="600" y="175"/>
                        </Array>
                    </mxGeometry>
                </mxCell>
                <mxCell id="APbuQcXfR1fwjJ1ndkPU-9" value="no" style="edgeLabel;html=1;align=center;verticalAlign=middle;resizable=0;points=[];fontSize=16;" vertex="1" connectable="0" parent="APbuQcXfR1fwjJ1ndkPU-8">
                    <mxGeometry x="-0.6439" y="2" relative="1" as="geometry">
                        <mxPoint as="offset"/>
                    </mxGeometry>
                </mxCell>
                <mxCell id="APbuQcXfR1fwjJ1ndkPU-10" style="edgeStyle=none;html=1;exitX=0.5;exitY=1;exitDx=0;exitDy=0;exitPerimeter=0;entryX=0.5;entryY=0;entryDx=0;entryDy=0;fontSize=16;" edge="1" parent="1" source="APbuQcXfR1fwjJ1ndkPU-3" target="fIsjUURkZK2D1dXDllZG-3">
                    <mxGeometry relative="1" as="geometry"/>
                </mxCell>
                <mxCell id="APbuQcXfR1fwjJ1ndkPU-11" value="yes" style="edgeLabel;html=1;align=center;verticalAlign=middle;resizable=0;points=[];fontSize=16;" vertex="1" connectable="0" parent="APbuQcXfR1fwjJ1ndkPU-10">
                    <mxGeometry x="-0.38" relative="1" as="geometry">
                        <mxPoint as="offset"/>
                    </mxGeometry>
                </mxCell>
                <mxCell id="APbuQcXfR1fwjJ1ndkPU-3" value="check auth" style="strokeWidth=2;html=1;shape=mxgraph.flowchart.decision;whiteSpace=wrap;fontSize=16;" vertex="1" parent="1">
                    <mxGeometry x="329" y="270" width="193" height="50" as="geometry"/>
                </mxCell>
                <mxCell id="APbuQcXfR1fwjJ1ndkPU-5" value="sign in" style="rounded=1;whiteSpace=wrap;html=1;absoluteArcSize=1;arcSize=14;strokeWidth=2;fontSize=16;" vertex="1" parent="1">
                    <mxGeometry x="317" y="140" width="217" height="70" as="geometry"/>
                </mxCell>
                <mxCell id="APbuQcXfR1fwjJ1ndkPU-7" style="edgeStyle=none;html=1;exitX=0.5;exitY=1;exitDx=0;exitDy=0;entryX=0.5;entryY=0;entryDx=0;entryDy=0;entryPerimeter=0;fontSize=16;" edge="1" parent="1" source="APbuQcXfR1fwjJ1ndkPU-5" target="APbuQcXfR1fwjJ1ndkPU-3">
                    <mxGeometry relative="1" as="geometry"/>
                </mxCell>
                <mxCell id="2FbuZxxxC8XjEXGTwHmQ-2" value="end" style="strokeWidth=2;html=1;shape=mxgraph.flowchart.start_1;whiteSpace=wrap;fontSize=16;" vertex="1" parent="1">
                    <mxGeometry x="375" y="840" width="100" height="60" as="geometry"/>
                </mxCell>
                <mxCell id="2FbuZxxxC8XjEXGTwHmQ-3" style="edgeStyle=none;html=1;exitX=0.5;exitY=1;exitDx=0;exitDy=0;exitPerimeter=0;entryX=0.5;entryY=0;entryDx=0;entryDy=0;entryPerimeter=0;" edge="1" parent="1" source="fIsjUURkZK2D1dXDllZG-10" target="2FbuZxxxC8XjEXGTwHmQ-2">
                    <mxGeometry relative="1" as="geometry"/>
                </mxCell>
            </root>
        </mxGraphModel>
    </diagram>
</mxfile>